<svg width="30" height="30" viewBox="0 0 40 44" fill="none" xmlns="http://www.w3.org/2000/svg">
<mask id="mask0_333_9793" style="mask-type:alpha" maskUnits="userSpaceOnUse" x="5" y="1" width="30" height="308">
<path fill-rule="evenodd" clip-rule="evenodd" d="M6.98333 7.29408L18.65 2.11074C19.5 1.72741 20.5 1.72741 21.35 2.11074L33.0167 7.29408C34.2167 7.82741 35 9.02741 35 10.3441V18.1774C35 27.4274 28.6 36.0774 20 38.1774C11.4 36.0774 5 27.4274 5 18.1774V10.3441C5 9.02741 5.78333 7.82741 6.98333 7.29408ZM11.1667 22.6774L15.4833 26.9941C16.1333 27.6441 17.2 27.6441 17.8333 26.9941L28.8167 16.0107C29.4667 15.3607 29.4667 14.3107 28.8167 13.6607C28.1667 13.0107 27.1167 13.0107 26.4667 13.6607L16.6667 23.4607L13.5167 20.3274C12.8667 19.6774 11.8167 19.6774 11.1667 20.3274C10.8546 20.6388 10.6792 21.0615 10.6792 21.5024C10.6792 21.9433 10.8546 22.366 11.1667 22.6774Z" fill="black"/>
</mask>
<g mask="url(#mask0_333_9793)">
<rect width="40" height="40" fill="#5DD86A"/>
</g>
</svg>
