<svg width="40" height="40" viewBox="0 0 40 40" fill="none" xmlns="http://www.w3.org/2000/svg">
<mask id="mask0_333_10020" style="mask-type:alpha" maskUnits="userSpaceOnUse" x="4" y="5" width="32" height="30">
<path fill-rule="evenodd" clip-rule="evenodd" d="M7.44988 34.173C4.88321 34.173 3.28321 31.3896 4.56654 29.173L17.1165 7.48965C18.3999 5.27298 21.5999 5.27298 22.8832 7.48965L35.4332 29.173C36.7165 31.3896 35.1165 34.173 32.5499 34.173H7.44988ZM32.5499 30.8396L19.9999 9.15631L7.44988 30.8396H32.5499ZM18.3332 17.5063V20.8396C18.3332 21.7563 19.0832 22.5063 19.9999 22.5063C20.9165 22.5063 21.6665 21.7563 21.6665 20.8396V17.5063C21.6665 16.5896 20.9165 15.8396 19.9999 15.8396C19.0832 15.8396 18.3332 16.5896 18.3332 17.5063ZM21.6665 29.173V25.8396H18.3332V29.173H21.6665Z" fill="black"/>
</mask>
<g mask="url(#mask0_333_10020)">
<rect width="40" height="40" fill="#D24E4E"/>
</g>
</svg>
